<svg width="532" height="532" viewBox="0 0 532 532" fill="none" xmlns="http://www.w3.org/2000/svg">
<rect width="532" height="532" rx="127" fill="url(#paint0_linear_181_21)"/>
<path d="M266 77C369.83 77 454 161.17 454 265C454 368.83 369.83 453 266 453C162.17 453 78 368.83 78 265C78 161.17 162.17 77 266 77ZM266 109C179.844 109 110 178.844 110 265C110 351.156 179.844 421 266 421C352.156 421 422 351.156 422 265C422 178.844 352.156 109 266 109Z" fill="white"/>
<path d="M207.94 183.9L211.882 223.32C212.32 225.948 214.072 227.7 216.7 227.7C219.328 227.7 221.08 225.948 221.518 223.32L225.46 183.9H234.22L238.162 223.32C238.6 225.948 240.352 227.7 242.98 227.7C245.608 227.7 247.36 225.948 247.798 223.32L251.74 183.9H260.5V223.32C260.5 240.402 246.922 253.98 229.84 253.98C212.758 253.98 199.18 240.402 199.18 223.32V183.9H207.94Z" fill="white"/>
<path d="M229.84 271.5C234.658 271.5 238.6 275.442 239.038 280.26L242.104 337.2C242.542 344.208 237.286 349.902 230.278 350.34H229.402C222.394 350.34 217.138 344.646 217.138 338.076V337.2L220.204 280.26C221.08 275.442 225.022 271.5 229.84 271.5ZM308.68 289.02C313.498 289.02 317.878 292.962 317.878 297.78L320.506 337.2C320.944 343.77 316.126 349.902 309.118 350.34H308.242C301.672 350.34 295.978 344.646 295.978 338.076V337.2L298.606 297.78C299.482 292.962 303.862 289.02 308.68 289.02Z" fill="white"/>
<path d="M321.82 183.9V271.5H286.78V218.94C286.78 199.668 302.548 183.9 321.82 183.9Z" fill="white"/>
<defs>
<linearGradient id="paint0_linear_181_21" x1="266" y1="532" x2="266" y2="8.47513e-08" gradientUnits="userSpaceOnUse">
<stop stop-color="#FF5C38"/>
<stop offset="1" stop-color="#FF947D"/>
</linearGradient>
</defs>
</svg>
